PathFileType	4	(X/Y/Z)	/tmp/tmpsltibevm/results/MarkerData/DJ3.trc
DataRate	CameraRate	NumFrames	NumMarkers	Units	OrigDataRate	OrigDataStartFrame	OrigNumFrames
100	100	8	51	m	100	0	256
Frame#	Time	C7			L.ASIS			L.PSIS			L_5meta			L_HJC			L_HJC_reg			L_Shoulder			L_Sternum			L_ankle			L_calc			L_elbow_lat			L_elbow_med			L_forearm			L_humerus			L_knee			L_sh2			L_sh3			L_shank_antsup			L_thigh1			L_thigh2			L_thigh3			L_thigh4			L_toe			L_wrist_radius			L_wrist_ulna			R_HJC			R_HJC_reg			R_Shoulder			R_Sternum			R_elbow_lat			R_elbow_med			R_forearm			R_humerus			R_wrist_radius			R_wrist_ulna			r.ASIS			r.PSIS			r_5meta			r_ankle			r_calc			r_knee			r_sh2			r_sh3			r_sh4			r_shank_antsup			r_thigh1			r_thigh2			r_thigh3			r_thigh4			r_thigh5			r_toe		
		X1	Y1	Z1	X2	Y2	Z2	X3	Y3	Z3	X4	Y4	Z4	X5	Y5	Z5	X6	Y6	Z6	X7	Y7	Z7	X8	Y8	Z8	X9	Y9	Z9	X10	Y10	Z10	X11	Y11	Z11	X12	Y12	Z12	X13	Y13	Z13	X14	Y14	Z14	X15	Y15	Z15	X16	Y16	Z16	X17	Y17	Z17	X18	Y18	Z18	X19	Y19	Z19	X20	Y20	Z20	X21	Y21	Z21	X22	Y22	Z22	X23	Y23	Z23	X24	Y24	Z24	X25	Y25	Z25	X26	Y26	Z26	X27	Y27	Z27	X28	Y28	Z28	X29	Y29	Z29	X30	Y30	Z30	X31	Y31	Z31	X32	Y32	Z32	X33	Y33	Z33	X34	Y34	Z34	X35	Y35	Z35	X36	Y36	Z36	X37	Y37	Z37	X38	Y38	Z38	X39	Y39	Z39	X40	Y40	Z40	X41	Y41	Z41	X42	Y42	Z42	X43	Y43	Z43	X44	Y44	Z44	X45	Y45	Z45	X46	Y46	Z46	X47	Y47	Z47	X48	Y48	Z48	X49	Y49	Z49	X50	Y50	Z50	X51	Y51	Z51

1	0	-1.26026	1.7714	-0.574568	-1.07576	1.273	-0.702759	-1.27805	1.3258	-0.630918	-1.156	0.350899	-0.740264	-1.16707	1.19525	-0.667469	-1.15407	1.20335	-0.657654	-1.17964	1.74728	-0.727761	-1.13141	1.70997	-0.592821	-1.26346	0.40593	-0.702816	-1.33543	0.361478	-0.661073	-1.18525	1.41938	-0.814165	-1.21722	1.40587	-0.741454	-1.13061	1.36538	-0.824198	-1.14239	1.60896	-0.787336	-1.20132	0.812107	-0.718241	-1.25228	0.749356	-0.748254	-1.26897	0.628207	-0.7522	-1.1749	0.728719	-0.705548	-1.1019	1.05215	-0.728326	-1.10628	0.913899	-0.706141	-1.20476	1.04964	-0.773051	-1.20954	0.919042	-0.741212	-1.11146	0.374278	-0.682575	-1.07282	1.19576	-0.799622	-1.10646	1.19689	-0.83968	-1.17429	1.19318	-0.478055	-1.16481	1.2026	-0.490537	-1.19288	1.74659	-0.408846	-1.1294	1.70618	-0.547428	-1.22224	1.42404	-0.338056	-1.24662	1.4137	-0.394934	-1.16618	1.36035	-0.315985	-1.15433	1.61569	-0.355045	-1.10389	1.20139	-0.344109	-1.14042	1.19756	-0.311438	-1.08239	1.27116	-0.44912	-1.28422	1.32537	-0.534934	-1.14876	0.350852	-0.415836	-1.27135	0.399744	-0.445888	-1.33641	0.36523	-0.489699	-1.19886	0.808709	-0.427244	-1.1909	0.600929	-0.439123	-1.2348	0.719981	-0.39075	-1.25773	0.606353	-0.390193	-1.17447	0.712985	-0.435742	-1.12139	1.08112	-0.406748	-1.12544	0.970892	-0.424166	-1.17642	0.94325	-0.388335	-1.23234	1.07764	-0.382552	-1.22901	0.962852	-0.400019	-1.12077	0.378837	-0.472842
2	0.01	-1.25979	1.77141	-0.574813	-1.0757	1.27298	-0.702908	-1.27804	1.32581	-0.631119	-1.15604	0.350891	-0.740443	-1.16706	1.19525	-0.667562	-1.15414	1.20331	-0.657758	-1.17933	1.74715	-0.727771	-1.13075	1.70999	-0.592681	-1.26352	0.40585	-0.702837	-1.33546	0.361437	-0.661121	-1.18502	1.41938	-0.81431	-1.21731	1.40582	-0.74211	-1.13054	1.36521	-0.82426	-1.1421	1.60883	-0.787359	-1.20122	0.812368	-0.718818	-1.25221	0.749245	-0.748324	-1.26898	0.628175	-0.752176	-1.17477	0.728646	-0.705701	-1.10204	1.05221	-0.728816	-1.10627	0.913872	-0.706399	-1.20481	1.04956	-0.773152	-1.2096	0.918981	-0.741312	-1.11159	0.374238	-0.682591	-1.07287	1.19566	-0.80013	-1.10656	1.1967	-0.840104	-1.17434	1.19316	-0.478151	-1.16482	1.20254	-0.490523	-1.19249	1.74657	-0.408786	-1.12899	1.70606	-0.547755	-1.22177	1.42399	-0.338087	-1.24626	1.41369	-0.394926	-1.16584	1.36026	-0.316179	-1.15387	1.61549	-0.355345	-1.1036	1.20127	-0.344368	-1.14	1.1975	-0.311719	-1.08246	1.27113	-0.4491	-1.28418	1.32537	-0.534956	-1.14876	0.350871	-0.415836	-1.27123	0.399762	-0.445979	-1.33648	0.365183	-0.489826	-1.19845	0.808655	-0.427286	-1.19083	0.60067	-0.439043	-1.2343	0.720191	-0.390843	-1.25767	0.606352	-0.390244	-1.17423	0.712766	-0.435817	-1.12148	1.08099	-0.406589	-1.1253	0.970888	-0.424244	-1.17622	0.943282	-0.388631	-1.23234	1.07754	-0.382545	-1.22891	0.962644	-0.400074	-1.12083	0.378925	-0.47289
3	0.02	-1.25932	1.77141	-0.574883	-1.07573	1.27294	-0.70295	-1.27802	1.32581	-0.631213	-1.15607	0.350883	-0.740501	-1.16709	1.19522	-0.667589	-1.1542	1.20326	-0.657798	-1.17892	1.74706	-0.727836	-1.13006	1.70989	-0.592779	-1.26358	0.405789	-0.702823	-1.33549	0.361413	-0.661168	-1.18479	1.41939	-0.814335	-1.21713	1.40581	-0.742342	-1.13033	1.36509	-0.82455	-1.14169	1.60865	-0.787433	-1.20142	0.812259	-0.718497	-1.2521	0.749179	-0.748429	-1.26896	0.628064	-0.75226	-1.17459	0.728564	-0.705887	-1.10209	1.05212	-0.729094	-1.10632	0.913786	-0.706554	-1.20481	1.0495	-0.773372	-1.20963	0.918921	-0.741413	-1.11164	0.374268	-0.682606	-1.07292	1.19547	-0.800413	-1.10674	1.19647	-0.840327	-1.17442	1.19313	-0.47818	-1.1649	1.20248	-0.490506	-1.19198	1.74649	-0.408765	-1.1286	1.70592	-0.547875	-1.22124	1.42397	-0.338187	-1.24565	1.41379	-0.395081	-1.16545	1.36008	-0.316363	-1.15343	1.61532	-0.355587	-1.1033	1.20117	-0.344629	-1.13969	1.19732	-0.312074	-1.08256	1.27108	-0.449054	-1.28417	1.32537	-0.534975	-1.14876	0.350876	-0.415839	-1.27119	0.399682	-0.446004	-1.33654	0.36512	-0.489865	-1.19806	0.808593	-0.427376	-1.19066	0.60038	-0.439202	-1.23442	0.719834	-0.391043	-1.25759	0.606375	-0.390309	-1.17395	0.712563	-0.435893	-1.12153	1.08093	-0.406546	-1.12519	0.970881	-0.424276	-1.17616	0.943211	-0.388788	-1.23243	1.07742	-0.382519	-1.2288	0.962449	-0.400187	-1.12089	0.378992	-0.472889
4	0.03	-1.25874	1.77139	-0.574842	-1.07581	1.27288	-0.702967	-1.27799	1.3258	-0.631228	-1.15609	0.350891	-0.740455	-1.16715	1.19518	-0.667595	-1.15428	1.20319	-0.657833	-1.17839	1.74699	-0.727882	-1.12944	1.70962	-0.593007	-1.26362	0.405767	-0.702898	-1.33552	0.361409	-0.661217	-1.18454	1.41942	-0.814307	-1.21657	1.40583	-0.74203	-1.13012	1.36499	-0.824826	-1.14112	1.60843	-0.787503	-1.20171	0.811979	-0.717742	-1.25195	0.749142	-0.748521	-1.26889	0.627965	-0.752442	-1.17439	0.728428	-0.70602	-1.10214	1.05192	-0.729316	-1.10637	0.913705	-0.706657	-1.20478	1.04945	-0.773659	-1.20964	0.918875	-0.741485	-1.11162	0.374347	-0.682628	-1.07299	1.19516	-0.800572	-1.10696	1.19626	-0.840446	-1.17453	1.19307	-0.478188	-1.16504	1.20238	-0.490475	-1.19136	1.74638	-0.408735	-1.12814	1.70577	-0.547873	-1.22072	1.42397	-0.338328	-1.24503	1.41392	-0.395289	-1.16504	1.35989	-0.316489	-1.15298	1.6152	-0.355736	-1.10302	1.20098	-0.344915	-1.13943	1.19704	-0.312447	-1.08268	1.27098	-0.448969	-1.28417	1.32534	-0.535006	-1.14877	0.350866	-0.415843	-1.27123	0.399587	-0.445988	-1.33659	0.365069	-0.489853	-1.1977	0.808557	-0.427521	-1.19046	0.600103	-0.439488	-1.23473	0.71928	-0.391255	-1.25749	0.606357	-0.390397	-1.17366	0.712411	-0.435946	-1.12166	1.08094	-0.406581	-1.12513	0.970884	-0.424258	-1.17612	0.943071	-0.388816	-1.23253	1.07729	-0.382512	-1.22869	0.962272	-0.400402	-1.12096	0.379048	-0.472827
5	0.04	-1.25802	1.77138	-0.574875	-1.07587	1.27282	-0.703058	-1.27798	1.3258	-0.631242	-1.15612	0.35092	-0.740438	-1.16722	1.19515	-0.667642	-1.1544	1.2031	-0.657921	-1.17777	1.74693	-0.727927	-1.12892	1.70932	-0.593129	-1.26362	0.405805	-0.703172	-1.33556	0.36141	-0.661238	-1.18427	1.41945	-0.814274	-1.21589	1.4058	-0.741544	-1.13019	1.36481	-0.824693	-1.14048	1.60824	-0.787494	-1.20162	0.812009	-0.717751	-1.25179	0.749128	-0.748609	-1.26875	0.627969	-0.752683	-1.17419	0.728206	-0.706069	-1.10219	1.05176	-0.729611	-1.10637	0.913685	-0.706759	-1.20475	1.04936	-0.773892	-1.20964	0.918833	-0.741525	-1.11165	0.3744	-0.682642	-1.0731	1.19477	-0.800859	-1.10715	1.19609	-0.840666	-1.17465	1.19297	-0.478238	-1.16518	1.20225	-0.490446	-1.19073	1.7463	-0.408673	-1.12755	1.70562	-0.547877	-1.2202	1.42396	-0.338561	-1.24455	1.41394	-0.39551	-1.16465	1.35975	-0.316626	-1.15243	1.61511	-0.355782	-1.10277	1.20072	-0.345185	-1.13916	1.19679	-0.312702	-1.08281	1.27084	-0.448882	-1.28417	1.32531	-0.535046	-1.14884	0.350865	-0.415823	-1.2713	0.399572	-0.445959	-1.33665	0.365029	-0.489863	-1.19746	0.808573	-0.427627	-1.19031	0.599886	-0.439643	-1.23451	0.719119	-0.391321	-1.2574	0.606277	-0.390475	-1.17339	0.712286	-0.435989	-1.12172	1.08094	-0.406605	-1.12507	0.970896	-0.424257	-1.17599	0.942926	-0.388848	-1.23257	1.07716	-0.382587	-1.2286	0.962113	-0.400686	-1.12106	0.379127	-0.472727
6	0.05	-1.25727	1.77142	-0.574961	-1.07592	1.27277	-0.703186	-1.27798	1.32577	-0.631276	-1.15615	0.350957	-0.7405	-1.16729	1.19511	-0.667715	-1.15453	1.20301	-0.658023	-1.17706	1.74688	-0.72808	-1.12837	1.7091	-0.593151	-1.26365	0.405862	-0.703486	-1.33561	0.361404	-0.66122	-1.18397	1.4194	-0.814159	-1.21542	1.4057	-0.741243	-1.13038	1.36461	-0.82437	-1.1399	1.60812	-0.787411	-1.2011	0.812366	-0.718623	-1.25155	0.749148	-0.748768	-1.26854	0.62801	-0.752959	-1.17393	0.727952	-0.706132	-1.10211	1.05166	-0.729854	-1.10633	0.913693	-0.706831	-1.20472	1.04923	-0.774035	-1.2096	0.918774	-0.741603	-1.11172	0.374426	-0.68261	-1.07328	1.1944	-0.801307	-1.10734	1.19591	-0.840976	-1.17474	1.19287	-0.478312	-1.16529	1.20214	-0.490436	-1.19007	1.74622	-0.408688	-1.12688	1.70546	-0.547905	-1.2196	1.42394	-0.33889	-1.244	1.4139	-0.395815	-1.16425	1.35961	-0.316878	-1.15178	1.61503	-0.35581	-1.10254	1.2005	-0.345362	-1.1389	1.19661	-0.312845	-1.08292	1.2707	-0.448845	-1.28416	1.32527	-0.535074	-1.14901	0.35093	-0.415752	-1.27131	0.399603	-0.445893	-1.33673	0.364978	-0.489891	-1.19737	0.808556	-0.427655	-1.1902	0.599726	-0.439665	-1.23397	0.719014	-0.391447	-1.25736	0.606228	-0.390503	-1.17313	0.712107	-0.436097	-1.12125	1.08083	-0.406618	-1.12498	0.970889	-0.42428	-1.17584	0.942808	-0.388948	-1.23254	1.07702	-0.382758	-1.22849	0.961973	-0.400936	-1.12116	0.379229	-0.472632
7	0.06	-1.25653	1.7715	-0.574964	-1.07598	1.27272	-0.703287	-1.27798	1.32573	-0.63131	-1.15619	0.35099	-0.740553	-1.16735	1.19507	-0.667772	-1.15464	1.20292	-0.65809	-1.17629	1.74685	-0.728217	-1.12771	1.70886	-0.593203	-1.26372	0.405868	-0.703619	-1.33566	0.3614	-0.661223	-1.18366	1.41934	-0.814022	-1.21502	1.40571	-0.741108	-1.13015	1.36455	-0.824509	-1.13933	1.60805	-0.787317	-1.20057	0.812605	-0.719316	-1.25115	0.749106	-0.748887	-1.26823	0.628028	-0.753238	-1.17361	0.727748	-0.706245	-1.10185	1.05158	-0.729989	-1.10627	0.913693	-0.70686	-1.20464	1.04909	-0.774171	-1.2095	0.9187	-0.741754	-1.11178	0.374471	-0.682539	-1.07348	1.19414	-0.801779	-1.10761	1.19575	-0.841257	-1.17481	1.1928	-0.47837	-1.16539	1.20207	-0.490421	-1.18935	1.7461	-0.408856	-1.12617	1.70526	-0.547943	-1.21896	1.42397	-0.339143	-1.24328	1.41398	-0.396107	-1.16378	1.35946	-0.317139	-1.15105	1.61494	-0.35594	-1.10233	1.20036	-0.34543	-1.1387	1.19646	-0.312978	-1.08302	1.27059	-0.448825	-1.28415	1.32524	-0.535106	-1.14918	0.35108	-0.415654	-1.27129	0.399636	-0.4458	-1.33677	0.364941	-0.489914	-1.19715	0.808393	-0.427801	-1.19004	0.599573	-0.439735	-1.23366	0.718496	-0.391842	-1.2573	0.606131	-0.390573	-1.17283	0.711861	-0.436275	-1.12043	1.08064	-0.406653	-1.1249	0.97086	-0.424225	-1.1757	0.942742	-0.389061	-1.23252	1.07685	-0.382984	-1.22833	0.961821	-0.401096	-1.12122	0.379325	-0.47257
8	0.07	-1.25573	1.77157	-0.574937	-1.07604	1.27267	-0.703368	-1.27799	1.32568	-0.631325	-1.15623	0.351018	-0.74055	-1.1674	1.19502	-0.66781	-1.15472	1.20282	-0.658152	-1.17549	1.74677	-0.728114	-1.12697	1.70858	-0.59324	-1.2638	0.405816	-0.703607	-1.33569	0.361403	-0.661274	-1.18333	1.41938	-0.814045	-1.21451	1.4059	-0.741101	-1.12956	1.36459	-0.82511	-1.13867	1.60801	-0.787288	-1.20024	0.81254	-0.719342	-1.25063	0.748902	-0.748764	-1.26784	0.628066	-0.753495	-1.17321	0.727574	-0.706357	-1.10147	1.05154	-0.730115	-1.10617	0.913708	-0.706868	-1.20448	1.04902	-0.774426	-1.20931	0.918614	-0.741897	-1.11189	0.37451	-0.68251	-1.07369	1.19396	-0.80228	-1.10803	1.1956	-0.841582	-1.1749	1.19272	-0.47841	-1.1655	1.20198	-0.490386	-1.18853	1.74596	-0.409059	-1.12546	1.70507	-0.547935	-1.21836	1.42404	-0.339322	-1.24258	1.41412	-0.396344	-1.16327	1.35928	-0.317262	-1.15024	1.6148	-0.356129	-1.10217	1.20021	-0.345433	-1.13857	1.19634	-0.313091	-1.08311	1.27051	-0.448758	-1.28417	1.3252	-0.535195	-1.1493	0.351212	-0.415593	-1.27131	0.399648	-0.445739	-1.33676	0.364927	-0.489934	-1.19667	0.808115	-0.428189	-1.18982	0.599385	-0.43987	-1.23352	0.718022	-0.392186	-1.25704	0.605763	-0.390822	-1.17244	0.711618	-0.436436	-1.11994	1.08054	-0.406681	-1.12479	0.97086	-0.424085	-1.17554	0.942686	-0.389149	-1.23252	1.07662	-0.383242	-1.22815	0.961617	-0.401194	-1.12126	0.379413	-0.472523
